<?xml version="1.0" encoding="utf-8"?>
<!-- Generator: Adobe Illustrator 19.0.0, SVG Export Plug-In . SVG Version: 6.00 Build 0)  -->
<svg version="1.1" id="Calque_1" xmlns="http://www.w3.org/2000/svg" xmlns:xlink="http://www.w3.org/1999/xlink" x="0px" y="0px"
	 viewBox="640 -640 2000 2000" style="enable-background:new 640 -640 2000 2000;" xml:space="preserve">
<style type="text/css">
	.st0{fill:#FDEFCD;}
	.st1{fill:#E63A3A;}
</style>
<g id="XMLID_1_">
	<path id="XMLID_494_" class="st0" d="M1937-142.3c0,73.6-31.4,128.7-85.9,172c-13.4,10.6-27.2,20.8-41,31
		c-31.4,23.1-49.3,54.1-53.9,92.8c-1.3,11.1-3.2,22.4-3,33.5c0.3,13.2-6.6,18.2-18,19.8c-39.1,5.5-78.2,10.9-117.4,16.3
		c-28.5,4-57.1,7.8-85.6,11.9c-19.7,2.9-25.4-1.5-25.2-21.9c0.2-29.4,2.1-58.8,1.8-88.2c-0.5-52.3-29.2-91.2-62.7-127.7
		c-33.7-36.7-59.8-78.1-70.9-127.3c-21.3-94.2,10.4-169.2,85.5-227c42.9-33,91.8-54.3,144.5-66.3c7.7-1.7,19.4,0.7,24.5,5.9
		c4.1,4.2,3.4,16.3,0.7,23.3c-14.7,38.3-31.3,75.9-46.1,114.2c-20.5,53-7.8,88.9,40.9,118.4c21.7,13.1,44.7,22.7,70.7,23.1
		c47.6,0.8,77.3-18,93.2-62.9c13.6-38.7,24-78.4,36.3-117.6c3.7-11.9,5.7-26.4,21.7-28.7c14.9-2.2,22.8,9.3,28.7,19.6
		C1908.7-269.5,1936.1-208.9,1937-142.3z"/>
	<path id="XMLID_474_" class="st0" d="M1624.2,1256.2c-87.9-1.7-162-71.2-179.4-150.4c-11.4-52.1-3-100.8,23.2-146.6
		c8.2-14.4,18.6-27.6,26.3-42.2c10-18.9,26.1-24.7,45.7-27.1c61.5-7.6,122.9-15.7,184.2-24.5c15.4-2.2,23.7,2,29.3,16.9
		c5.4,14.3,12.9,28.1,21.3,40.8c24.1,36.3,45.6,73.4,49.4,118.2c6.6,76.6-23.2,136.4-83.9,181.4
		C1706.7,1247.8,1661.8,1259.7,1624.2,1256.2z M1632.3,1150.5c49.8,0.4,88.4-37,88.4-85.6c-0.1-46.3-38.8-83.6-87-84
		c-46.1-0.4-86,38-86.4,83C1546.8,1113.4,1582.9,1150.1,1632.3,1150.5z"/>
	<path id="XMLID_468_" class="st1" d="M1828.2,450.2c-14.3,1.8-28.8,2.7-42.8,5.8c-10.9,2.4-15.2-1-15.8-11.3c0-0.5-0.2-1-0.3-1.6
		c-7.7-39.8-1.6-47.4,37-41.7c38.5,5.7,77,12.2,114.9,20.8c50.8,11.5,74,48.5,59.8,93c-8.5,26.9-29,43.1-55.4,48.2
		c-42.4,8.2-85.4,13.6-128.2,19.6c-77.2,10.7-154.5,20.9-231.8,31.3c-41.8,5.6-83.6,11.2-125.4,16.9c-3.7,0.5-7.8,0.6-10.8,2.5
		c-4.2,2.5-7.5,6.4-11.2,9.7c4.6,2.8,9.2,8.1,13.8,8.1c18.1,0,36.3-1.2,54.3-3c11.4-1.1,15.7,3.7,15.8,14.2
		c0.4,50.1,4.4,49.2-41.5,39.5c-37-7.8-74.6-13.5-111.1-23.2c-53.6-14.3-74-74-41.1-115.3c13.5-17,32.6-24,53-26.9
		c87.8-12.2,175.6-23.9,263.4-35.8c70.9-9.6,141.9-18.8,212.7-29.1c8.3-1.2,22.9-9.1,22.5-11.9c-2-13.1-14.8-7.6-23.7-8.9
		c-2.6-0.4-5.3-0.1-8-0.1C1828.3,450.8,1828.2,450.5,1828.2,450.2z"/>
	<path id="XMLID_466_" class="st1" d="M1828.5,698c-14.9,1.5-29.8,2.4-44.6,4.6c-11.2,1.6-16.3-2.5-16.4-13.5
		c-0.1-12.3-0.3-24.6,0-36.9c0.3-9.3,5.2-13.7,14.7-12c47.7,8.6,95.7,16.1,143,26.2c36.7,7.9,59.7,38.1,59,72.2
		c-0.8,35.2-24.2,64.5-61.5,72.1c-35.5,7.2-71.5,11.6-107.4,16.6c-75,10.5-150.1,20.5-225.2,31c-63.4,8.8-126.7,18-190.1,27
		c-16.9,2.4-33.8,5.6-50.8,6c-27.8,0.6-50.8-21.2-54.3-49c-3-24.4,13.2-47.6,39.4-54.9c10.7-3,21.9-4.7,33-6.2
		c105.3-14,210.6-27.9,315.9-41.7c51.3-6.7,102.7-13.2,154-19.9c4.8-0.6,9.9-1,14-3c4.6-2.3,8.3-6.4,12.4-9.6
		c-4.8-2.7-9.2-6.8-14.3-7.9c-6.7-1.4-13.8-0.3-20.8-0.3C1828.5,698.4,1828.5,698.2,1828.5,698z"/>
	<path id="XMLID_465_" class="st1" d="M1452,404.9c7.1-0.8,18.8-2.3,30.4-3.5c3.7-0.4,8.5-1.6,11.1,0.2c16.8,11.7,6.2,29.2,8.2,44
		c1.2,9.2-4.8,13.9-14.1,12.4c-29.5-4.7-59-9.3-88.3-14.8c-18.8-3.5-38-6.6-55.8-13.1c-34.5-12.6-53.9-43.2-50.4-75.2
		c3.8-35.2,26.4-59.6,64.2-65.8c50.5-8.4,101.3-15.3,152-22.6c80.3-11.4,160.6-22.6,240.9-33.9c40.7-5.7,81.3-12.1,122.1-16.9
		c11.3-1.3,23.5,0.7,34.8,3.3c16.5,3.9,30.9,22.1,32.5,38c2.6,24.5-3.4,46.5-27.2,56.1c-20.4,8.2-42.9,12.4-64.9,15.5
		c-86.1,12.2-172.4,23.2-258.6,34.8c-49.2,6.6-98.3,13.5-147.4,20.3c-0.5,0.1-1.2-0.1-1.6,0.1c-7,4.4-14,8.8-21,13.2
		c7.4,2.6,14.7,5.3,22.1,7.6C1443,405.4,1445.3,404.9,1452,404.9z"/>
	<path id="XMLID_464_" class="st0" d="M1529.4,688.1c0-4.3,0-8.6,0-12.8c-0.3-40.2-1.5-30.1,32.5-35.5
		c53.7-8.5,107.7-14.4,161.5-21.9c11.3-1.6,16.3,2.3,16.4,13.2c0.1,21.9,0.7,43.9-0.6,65.7c-0.3,4.4-7.6,11.3-12.4,12.1
		c-36.8,5.9-73.8,10.7-110.8,15.7c-21.7,2.9-43.4,5.2-65,8.2c-18.6,2.5-21.3,0.4-21.4-18.9c-0.1-8.6,0-17.1,0-25.7
		C1529.6,688.1,1529.5,688.1,1529.4,688.1z"/>
	<path id="XMLID_463_" class="st0" d="M1739.7,419.3c0.6,52.9,3.9,40.7-42.7,47.8c-47.4,7.2-95.1,12.6-142.6,19.1
		c-18.9,2.6-24.5-1.6-24.6-20.6c-0.2-17.7,0-35.3-0.3-53c-0.2-10.7,3.2-16.7,15.1-18.1c57.7-6.9,115.3-14.6,173-21.7
		c19.4-2.4,21.9,0.4,22.1,20.7C1739.8,402.2,1739.7,410.7,1739.7,419.3z"/>
</g>
</svg>
