<?xml version="1.0" encoding="utf-8"?>
<!-- Generator: Adobe Illustrator 19.0.0, SVG Export Plug-In . SVG Version: 6.00 Build 0)  -->
<svg version="1.1" id="Calque_1" xmlns="http://www.w3.org/2000/svg" xmlns:xlink="http://www.w3.org/1999/xlink" x="0px" y="0px"
	 viewBox="-97 248 525 225" style="enable-background:new -97 248 525 225;" xml:space="preserve">
<style type="text/css">
	.st0{fill:#FDEFCD;}
	.st1{fill:#E63A3A;}
</style>
<g id="Mécano">
	<path id="M" class="st0" d="M73.6,312.5l10.1,18.1l10-18.1h12.8v41.3H96v-26.3l-10.4,18.2h-4.1l-10.6-18.2v26.3H60.2v-41.3H73.6z"
		/>
	<path id="E_1_" class="st0" d="M145.6,312.5v9.8H125v6.3h17v9.3h-17v6.1h20.6v9.7h-31.2v-41.3H145.6z M131.1,309.6h-8.6l7.7-11.2
		h10.9L131.1,309.6z"/>
	<path id="C" class="st0" d="M159.7,333c0,1.3,0.2,2.7,0.5,4c0.4,1.3,0.9,2.5,1.7,3.6c0.8,1.1,1.8,1.9,3,2.6c1.2,0.7,2.8,1,4.6,1
		c2.3,0,4.1-0.5,5.5-1.5c1.4-1,2.3-2.5,2.7-4.3H188c-0.2,2.6-0.8,4.9-1.9,6.9c-1.1,2-2.5,3.6-4.2,5c-1.7,1.3-3.6,2.3-5.8,3
		c-2.2,0.7-4.4,1-6.7,1c-3.2,0-6.1-0.5-8.6-1.5c-2.5-1-4.7-2.4-6.5-4.2c-1.8-1.8-3.1-4.1-4.1-6.7c-0.9-2.6-1.4-5.6-1.4-8.8
		c0-3.2,0.5-6.1,1.5-8.8c1-2.6,2.4-4.8,4.1-6.7c1.8-1.8,3.9-3.2,6.5-4.2c2.5-1,5.3-1.5,8.4-1.5c2.4,0,4.6,0.3,6.7,1
		c2.1,0.7,4,1.6,5.6,2.9c1.6,1.3,2.9,2.9,4,4.9c1,2,1.7,4.3,1.9,7h-10c-0.5-1.9-1.4-3.3-2.7-4.3c-1.3-1-3.1-1.5-5.5-1.5
		c-1.8,0-3.3,0.3-4.6,1c-1.2,0.6-2.2,1.5-3,2.5c-0.8,1.1-1.3,2.2-1.6,3.6C159.9,330.3,159.7,331.7,159.7,333z"/>
	<path id="A" class="st0" d="M198.3,353.8h-11.3l16.6-41.3h10.7l16.4,41.3h-11.4l-2-5.8h-16.9L198.3,353.8z M213.9,338.5l-5-14.2
		l-5.2,14.2H213.9z"/>
	<path id="N" class="st0" d="M244.1,312.5l17.4,23.6v-23.6h10.6v41.3h-9.6l-17.7-23.3v23.3h-10.6v-41.3H244.1z"/>
	<path id="O_1_" class="st0" d="M298.9,312c3.1,0,6,0.5,8.5,1.5c2.6,1,4.8,2.4,6.7,4.2c1.8,1.8,3.3,4,4.3,6.6c1,2.6,1.5,5.5,1.5,8.7
		c0,3.2-0.5,6-1.5,8.7c-1,2.6-2.5,4.9-4.3,6.8c-1.9,1.9-4.1,3.3-6.7,4.4c-2.6,1-5.5,1.5-8.6,1.5c-3.2,0-6.1-0.5-8.8-1.5
		c-2.6-1-4.8-2.4-6.7-4.3c-1.8-1.8-3.3-4.1-4.3-6.7c-1-2.6-1.5-5.5-1.5-8.7c0-3.2,0.5-6.1,1.5-8.7c1-2.6,2.5-4.8,4.3-6.7
		c1.9-1.8,4.1-3.2,6.7-4.3C292.9,312.5,295.8,312,298.9,312z M288.5,333c0,1.4,0.2,2.8,0.6,4.1c0.4,1.3,1,2.5,1.9,3.6
		c0.9,1.1,2,1.9,3.3,2.6s3,1,4.9,1c1.8,0,3.3-0.3,4.6-1c1.3-0.7,2.3-1.6,3.1-2.6c0.8-1.1,1.4-2.3,1.8-3.6c0.4-1.3,0.6-2.6,0.6-3.9
		c0-1.2-0.2-2.5-0.5-3.8c-0.4-1.3-0.9-2.6-1.8-3.6c-0.8-1.1-1.9-2-3.2-2.7c-1.3-0.7-2.9-1.1-4.8-1.1c-1.9,0-3.5,0.3-4.8,1
		c-1.3,0.7-2.4,1.5-3.3,2.6c-0.8,1.1-1.4,2.2-1.8,3.6C288.7,330.4,288.5,331.7,288.5,333z"/>
</g>
<g id="Réglo">
	<path id="R" class="st0" d="M77.7,372c1.9,0,3.8,0.2,5.7,0.5c2,0.3,3.7,1,5.3,2c1.6,1,2.9,2.4,4,4.1c1.1,1.8,1.6,4.1,1.6,7
		c-0.1,2.7-0.7,5.2-2,7.3c-1.2,2.1-3.3,3.8-6.2,4.8l9.6,15.6h-12l-7.9-13.9h-5.1v13.9H60.2V372H77.7z M77.7,390.1
		c2,0,3.5-0.4,4.6-1.1c1.1-0.7,1.6-1.8,1.6-3.2c0-0.9-0.2-1.5-0.5-2c-0.3-0.5-0.7-0.9-1.3-1.2c-0.5-0.3-1.2-0.5-1.9-0.6
		c-0.7-0.1-1.5-0.1-2.3-0.1h-7.1v8.3H77.7z"/>
	<path id="E" class="st0" d="M132.8,371.9v9.8h-20.6v6.3h17v9.3h-17v6.1h20.6v9.7h-31.2v-41.3H132.8z M118.4,369h-8.6l7.7-11.2h10.9
		L118.4,369z"/>
	<path id="G" class="st0" d="M147,392.6c0,1.5,0.2,2.9,0.5,4.2c0.4,1.3,0.9,2.5,1.7,3.6c0.8,1.1,1.8,1.9,3.2,2.5
		c1.3,0.6,2.9,0.9,4.9,0.9c0.9,0,1.7-0.1,2.6-0.3c0.9-0.2,1.6-0.4,2.3-0.8c0.7-0.4,1.3-0.8,1.8-1.4c0.5-0.6,0.8-1.3,1-2.1h-9.7v-8.9
		H176v1.5c0,2.8-0.3,5.6-0.8,8.1c-0.5,2.6-1.6,5-3.3,7.3c-0.8,1.1-1.8,2.1-2.9,2.9c-1.1,0.8-2.3,1.5-3.6,2c-1.3,0.5-2.7,0.9-4.1,1.2
		c-1.5,0.3-2.9,0.4-4.3,0.4c-3.2,0-6.1-0.5-8.7-1.5c-2.5-1-4.7-2.4-6.5-4.2c-1.8-1.8-3.2-4-4.1-6.7c-1-2.6-1.4-5.5-1.4-8.8
		c0-3.3,0.5-6.3,1.5-8.9c1-2.6,2.4-4.8,4.1-6.7c1.8-1.8,4-3.2,6.5-4.2c2.5-1,5.4-1.5,8.6-1.5c2.3,0,4.5,0.3,6.6,0.9
		c2.1,0.6,3.9,1.5,5.6,2.8c1.7,1.2,3,2.8,4.1,4.7c1.1,1.9,1.8,4.1,2.2,6.7h-10.4c-0.4-1.8-1.3-3.1-2.6-3.9c-1.3-0.8-3.1-1.2-5.2-1.2
		c-1.9,0-3.4,0.3-4.7,1c-1.3,0.7-2.3,1.5-3.1,2.6c-0.8,1.1-1.4,2.3-1.7,3.6C147.2,390,147,391.3,147,392.6z"/>
	<path id="L" class="st0" d="M192.1,403.6h19.8v9.7h-30.3V372h10.6V403.6z"/>
	<path id="O" class="st0" d="M236,371.5c3.1,0,6,0.5,8.5,1.5c2.6,1,4.8,2.4,6.7,4.2c1.8,1.8,3.3,4,4.3,6.6c1,2.6,1.5,5.5,1.5,8.7
		c0,3.2-0.5,6-1.5,8.7c-1,2.6-2.5,4.9-4.3,6.8c-1.9,1.9-4.1,3.3-6.7,4.4c-2.6,1-5.5,1.5-8.6,1.5c-3.2,0-6.1-0.5-8.8-1.5
		c-2.6-1-4.8-2.4-6.7-4.3c-1.8-1.8-3.3-4.1-4.3-6.7c-1-2.6-1.5-5.5-1.5-8.7c0-3.2,0.5-6.1,1.5-8.7c1-2.6,2.5-4.8,4.3-6.7
		c1.9-1.8,4.1-3.2,6.7-4.3C229.9,372,232.8,371.5,236,371.5z M225.5,392.6c0,1.4,0.2,2.8,0.6,4.1c0.4,1.3,1,2.5,1.9,3.6
		c0.9,1.1,2,1.9,3.3,2.6s3,1,4.9,1c1.8,0,3.3-0.3,4.6-1c1.3-0.7,2.3-1.6,3.1-2.6c0.8-1.1,1.4-2.3,1.8-3.6c0.4-1.3,0.6-2.6,0.6-3.9
		c0-1.2-0.2-2.5-0.5-3.8c-0.4-1.3-0.9-2.6-1.8-3.6c-0.8-1.1-1.9-2-3.2-2.7c-1.3-0.7-2.9-1.1-4.8-1.1c-1.9,0-3.5,0.3-4.8,1
		c-1.3,0.7-2.4,1.5-3.3,2.6c-0.8,1.1-1.4,2.2-1.8,3.6C225.7,389.9,225.5,391.2,225.5,392.6z"/>
</g>
<g id="XMLID_1_">
	<path id="XMLID_494_" class="st0" d="M42.3,328.5c0,4.5-1.9,7.8-5.2,10.5c-0.8,0.6-1.7,1.3-2.5,1.9c-1.9,1.4-3,3.3-3.3,5.6
		c-0.1,0.7-0.2,1.4-0.2,2c0,0.8-0.4,1.1-1.1,1.2c-2.4,0.3-4.8,0.7-7.1,1c-1.7,0.2-3.5,0.5-5.2,0.7c-1.2,0.2-1.5-0.1-1.5-1.3
		c0-1.8,0.1-3.6,0.1-5.4c0-3.2-1.8-5.5-3.8-7.8c-2-2.2-3.6-4.7-4.3-7.7c-1.3-5.7,0.6-10.3,5.2-13.8c2.6-2,5.6-3.3,8.8-4
		c0.5-0.1,1.2,0,1.5,0.4c0.2,0.3,0.2,1,0,1.4c-0.9,2.3-1.9,4.6-2.8,6.9c-1.2,3.2-0.5,5.4,2.5,7.2c1.3,0.8,2.7,1.4,4.3,1.4
		c2.9,0,4.7-1.1,5.7-3.8c0.8-2.3,1.5-4.8,2.2-7.1c0.2-0.7,0.3-1.6,1.3-1.7c0.9-0.1,1.4,0.6,1.7,1.2
		C40.6,320.7,42.3,324.4,42.3,328.5z"/>
	<path id="XMLID_474_" class="st0" d="M23.3,413.5c-5.3-0.1-9.8-4.3-10.9-9.1c-0.7-3.2-0.2-6.1,1.4-8.9c0.5-0.9,1.1-1.7,1.6-2.6
		c0.6-1.1,1.6-1.5,2.8-1.6c3.7-0.5,7.5-1,11.2-1.5c0.9-0.1,1.4,0.1,1.8,1c0.3,0.9,0.8,1.7,1.3,2.5c1.5,2.2,2.8,4.5,3,7.2
		c0.4,4.7-1.4,8.3-5.1,11C28.4,412.9,25.6,413.7,23.3,413.5z M23.8,407c3,0,5.4-2.2,5.4-5.2c0-2.8-2.4-5.1-5.3-5.1
		c-2.8,0-5.2,2.3-5.2,5C18.6,404.8,20.8,407,23.8,407z"/>
	<path id="XMLID_468_" class="st1" d="M35.7,364.5c-0.9,0.1-1.8,0.2-2.6,0.4c-0.7,0.1-0.9-0.1-1-0.7c0,0,0-0.1,0-0.1
		c-0.5-2.4-0.1-2.9,2.2-2.5c2.3,0.3,4.7,0.7,7,1.3c3.1,0.7,4.5,2.9,3.6,5.7c-0.5,1.6-1.8,2.6-3.4,2.9c-2.6,0.5-5.2,0.8-7.8,1.2
		c-4.7,0.7-9.4,1.3-14.1,1.9c-2.5,0.3-5.1,0.7-7.6,1c-0.2,0-0.5,0-0.7,0.1c-0.3,0.2-0.5,0.4-0.7,0.6c0.3,0.2,0.6,0.5,0.8,0.5
		c1.1,0,2.2-0.1,3.3-0.2c0.7-0.1,1,0.2,1,0.9c0,3,0.3,3-2.5,2.4c-2.3-0.5-4.5-0.8-6.8-1.4c-3.3-0.9-4.5-4.5-2.5-7
		c0.8-1,2-1.5,3.2-1.6c5.3-0.7,10.7-1.5,16-2.2c4.3-0.6,8.6-1.1,12.9-1.8c0.5-0.1,1.4-0.6,1.4-0.7c-0.1-0.8-0.9-0.5-1.4-0.5
		C36.1,364.5,35.9,364.5,35.7,364.5C35.7,364.5,35.7,364.5,35.7,364.5z"/>
	<path id="XMLID_466_" class="st1" d="M35.8,379.5c-0.9,0.1-1.8,0.1-2.7,0.3c-0.7,0.1-1-0.2-1-0.8c0-0.7,0-1.5,0-2.2
		c0-0.6,0.3-0.8,0.9-0.7c2.9,0.5,5.8,1,8.7,1.6c2.2,0.5,3.6,2.3,3.6,4.4c0,2.1-1.5,3.9-3.7,4.4c-2.2,0.4-4.3,0.7-6.5,1
		c-4.6,0.6-9.1,1.2-13.7,1.9c-3.9,0.5-7.7,1.1-11.6,1.6c-1,0.1-2.1,0.3-3.1,0.4c-1.7,0-3.1-1.3-3.3-3c-0.2-1.5,0.8-2.9,2.4-3.3
		c0.7-0.2,1.3-0.3,2-0.4c6.4-0.9,12.8-1.7,19.2-2.5c3.1-0.4,6.2-0.8,9.4-1.2c0.3,0,0.6-0.1,0.9-0.2c0.3-0.1,0.5-0.4,0.8-0.6
		c-0.3-0.2-0.6-0.4-0.9-0.5C36.6,379.5,36.2,379.6,35.8,379.5C35.8,379.6,35.8,379.5,35.8,379.5z"/>
	<path id="XMLID_465_" class="st1" d="M12.9,361.7c0.4-0.1,1.1-0.1,1.8-0.2c0.2,0,0.5-0.1,0.7,0c1,0.7,0.4,1.8,0.5,2.7
		c0.1,0.6-0.3,0.8-0.9,0.8c-1.8-0.3-3.6-0.6-5.4-0.9c-1.1-0.2-2.3-0.4-3.4-0.8c-2.1-0.8-3.3-2.6-3.1-4.6c0.2-2.1,1.6-3.6,3.9-4
		c3.1-0.5,6.2-0.9,9.2-1.4c4.9-0.7,9.8-1.4,14.6-2.1c2.5-0.3,4.9-0.7,7.4-1c0.7-0.1,1.4,0,2.1,0.2c1,0.2,1.9,1.3,2,2.3
		c0.2,1.5-0.2,2.8-1.7,3.4c-1.2,0.5-2.6,0.8-3.9,0.9c-5.2,0.7-10.5,1.4-15.7,2.1c-3,0.4-6,0.8-9,1.2c0,0-0.1,0-0.1,0
		c-0.4,0.3-0.9,0.5-1.3,0.8c0.4,0.2,0.9,0.3,1.3,0.5C12.3,361.7,12.5,361.7,12.9,361.7z"/>
	<path id="XMLID_464_" class="st0" d="M17.6,378.9c0-0.3,0-0.5,0-0.8c0-2.4-0.1-1.8,2-2.2c3.3-0.5,6.5-0.9,9.8-1.3
		c0.7-0.1,1,0.1,1,0.8c0,1.3,0,2.7,0,4c0,0.3-0.5,0.7-0.8,0.7c-2.2,0.4-4.5,0.7-6.7,1c-1.3,0.2-2.6,0.3-4,0.5
		c-1.1,0.2-1.3,0-1.3-1.2C17.6,380,17.6,379.4,17.6,378.9C17.6,378.9,17.6,378.9,17.6,378.9z"/>
	<path id="XMLID_463_" class="st0" d="M30.4,362.6c0,3.2,0.2,2.5-2.6,2.9c-2.9,0.4-5.8,0.8-8.7,1.2c-1.2,0.2-1.5-0.1-1.5-1.3
		c0-1.1,0-2.1,0-3.2c0-0.6,0.2-1,0.9-1.1c3.5-0.4,7-0.9,10.5-1.3c1.2-0.1,1.3,0,1.3,1.3C30.4,361.5,30.4,362.1,30.4,362.6z"/>
</g>
</svg>
